<?xml version="1.0" encoding="utf-8"?>
<!-- Uploaded to: SVG Repo, www.svgrepo.com, Generator: SVG Repo Mixer Tools -->
<svg xmlns="http://www.w3.org/2000/svg" width="800px" height="800px" viewBox="0 0 32 32" fill="#083cae">
    <path d="M75.35 23.14c3.23 0 5.79-1.99 6.25-4.93L77.81 18c-.33 1.13-1.36 1.8-2.56 1.8-1.77 0-2.95-1.31-2.95-3.33 0-2.01 1.18-3.33 2.95-3.33 1.2 0 2.23.67 2.56 1.8l3.8-.2c-.47-2.95-3.03-4.93-6.26-4.93-3.97 0-6.94 2.78-6.94 6.66s2.97 6.66 6.94 6.66zm-31.1-3.3c-1.77 0-2.95-1.32-2.95-3.36s1.18-3.34 2.94-3.34 2.9 1.32 2.9 3.34-1.18 3.35-2.9 3.35m0 3.34c3.9 0 6.8-2.84 6.8-6.7s-2.9-6.66-6.8-6.66-6.84 2.84-6.84 6.67 2.92 6.69 6.84 6.69zm15.81 0c3.44 0 6.07-2.33 6.33-5.5l-3.74-.21a2.69 2.69 0 0 1-2.69 2.37c-1.76 0-2.94-1.31-2.94-3.35s1.18-3.34 2.94-3.34c1.39 0 2.46.9 2.7 2.3l3.73-.2c-.25-3.13-2.9-5.43-6.33-5.43-3.97 0-6.94 2.8-6.94 6.67s2.97 6.69 6.94 6.69zm-42.84-9.71a3.3 3.3 0 0 0-1.33-.3 3.31 3.31 0 0 0 0 6.63 3.3 3.3 0 0 0 3-4.65l-2.78 1.57c-.28.17-.62-.17-.45-.45zm14.53-7.12v-4.3L20.68 12.5a6.28 6.28 0 0 1 1.42 3.98c0 3.46-2.79 6.28-6.22 6.28s-6.22-2.82-6.22-6.28 2.79-6.27 6.22-6.27c1.5 0 2.88.54 3.95 1.43L30.21.5h-4.26c-1.41 0-2.64.74-3.34 1.86A15.54 15.54 0 0 0 4.66 5.18c-8 8-5.32 21.83 5.13 26.12a15.87 15.87 0 0 0 17.3-3.5 15.91 15.91 0 0 0 3.17-17.32 16 16 0 0 0-.36-.78 3.98 3.98 0 0 0 1.84-3.36zm-6.98 19.1a12.55 12.55 0 0 1-17.77 0 12.8 12.8 0 0 1 0-17.91 12.58 12.58 0 0 1 15-2.12V9a9.54 9.54 0 0 0-6.12-2.22c-5.3 0-9.63 4.36-9.63 9.71s4.32 9.72 9.64 9.72 9.63-4.36 9.63-9.72a9.7 9.7 0 0 0-2.2-6.16h3.55a12.83 12.83 0 0 1-2.1 15.12"/>
</svg>
